<svg id="Laag_1" xmlns="http://www.w3.org/2000/svg" viewBox="0 0 219 195">
  <style>
    .st1{fill-rule:evenodd;clip-rule:evenodd;fill:#202844}
  </style>
  <path d="M98.4 193.5c-53.1 0-96-43.3-96-96s42.9-96 96-96c36.4 0 69.9 20.1 85.7 53.1 1.3 2.6.4 5.6-2.1 6.9-2.6 1.3-5.6.4-6.9-2.1-15-29.6-44.6-47.6-77.1-47.6-47.6 0-85.7 38.6-85.7 85.7s38.6 85.7 85.7 85.7c19.7 0 39.4-6.9 54.4-19.7 2.1-1.7 5.6-1.3 7.3.9s1.3 5.6-.9 7.3c-16.7 14.1-38.6 21.8-60.4 21.8z" fill="#93d500"/>
  <path class="st1" d="M104.4 102.2c-3.4 0-6.4 1.7-8.1 4.3-1.7 2.1-2.6 5.6-2.6 8.1 0 4.7 3 7.3 7.7 7.3 3 0 5.1-.9 6.9-1.3l-.9-3c-1.3.4-3 1.3-5.1 1.3-3 0-3.9-1.7-3.9-4.3l11.6-1.7c.4-1.3.4-2.6.4-3.4.4-4.7-1.8-7.3-6-7.3zm1.2 8.2l-6.9 1.3c.4-1.3.4-2.1.9-3 .9-1.7 2.1-3 3.9-3s2.6.9 2.6 3c0 .4 0 1.2-.5 1.7zM111.6 115.1c0 4.3 2.6 6.9 6.4 6.9 1.3 0 3-.4 3.9-.9l-.4 1.3c-.4 1.3-1.7 1.7-4.7 1.7-1.7 0-3.4-.4-4.7-1.3l-2.1 3.4c1.7.9 4.7 1.7 7.3 1.7 5.6 0 8.6-2.1 9.4-6l3.4-18.4c-1.7-.9-4.3-1.3-6.9-1.3-9 0-11.6 8.6-11.6 12.9zm11.2 3c-.4.4-1.7.4-2.1.4-2.1 0-3-1.3-3-3.4 0-1.7.9-4.7 1.3-6 .9-2.1 2.6-3.4 4.3-3.4.9 0 1.7 0 2.1.4l-2.6 12zM134.4 103.9l-3.4 18.4h5.1l3-16.3c.4-.4 1.7-.4 2.6-.4.9 0 1.3 0 2.1.4l1.7-3.9h-2.6c-3.4.1-6.4.5-8.5 1.8zM154.1 102.2c-3.4 0-6.4 1.7-8.1 4.3-1.7 2.1-2.6 5.6-2.6 8.1 0 4.7 3 7.3 7.7 7.3 3 0 5.1-.9 6.9-1.3l-.4-3.4c-1.3.4-3 1.3-5.1 1.3-3 0-3.9-1.7-3.9-4.3l11.6-1.7c.4-1.3.4-2.6.4-3.4-.1-4.3-2.2-6.9-6.5-6.9zm1.3 8.2l-6.9.9c.4-1.3.4-2.1.9-3 .9-1.7 2.1-3 3.9-3s2.6.9 2.6 3c-.1.8-.1 1.6-.5 2.1zM172.5 102.2c-3.4 0-6.4 1.7-8.1 4.3-1.7 2.1-2.6 5.6-2.6 8.1 0 4.7 3 7.3 7.7 7.3 3 0 5.1-.9 6.9-1.3l-.4-3.4c-1.3.4-3 1.3-5.1 1.3-3 0-3.9-1.7-3.9-4.3l11.6-1.7c.4-1.3.4-2.6.4-3.4-.1-4.3-2.6-6.9-6.5-6.9zm1.3 8.2l-6.9.9c.4-1.3.4-2.1.9-3 .9-1.7 2.1-3 3.9-3 1.7 0 2.6.9 2.6 3-.1.8-.5 1.6-.5 2.1zM181.1 109.5c0 4.7 5.1 4.3 5.1 6.4 0 1.3-.9 3-4.7 2.1-1.3-.4-1.7.4-2.1.9-.4.4-1.3 2.1-1.3 2.1s1.7 1.7 5.1 1.7c6 0 8.6-3.9 8.6-7.3 0-4.3-5.6-4.3-5.6-6.9 0-1.3 1.3-2.6 3.4-2.1.9 0 2.1.9 3.4-.9l.9-1.7s-1.7-1.7-5.6-1.7c-4.7.1-7.2 4-7.2 7.4zM92.8 98.8h-4.7l-.9 4.7h-.4c-.9 0-1.7-.4-2.6-.4-3 0-6 1.3-8.1 3.9-1.7 2.1-2.6 5.6-2.6 8.6 0 4.7 3.4 7.3 8.1 7.3 3.4 0 5.6-.9 7.3-1.3l4.3-21c.9-1 .4-1.8-.4-1.8zm-8.2 20.1c-.4.4-1.3.4-1.7.4-2.1 0-3-1.3-3-3.4s.9-4.7 1.7-6.9c.9-1.7 2.1-2.6 4.3-2.6H87.6l-3 12.5zM90.6 133.5c-1.7 2.1-2.6 6-2.6 9 0 4.7 3 7.7 6.9 7.7 2.1 0 4.3-.9 5.1-1.3l-.4-3.4c-.4.4-1.7.9-2.6.9-1.7 0-2.6-1.3-2.6-3.9 0-1.7.9-4.7 1.7-6 .9-1.7 2.6-2.6 3.9-2.6.9 0 1.7.4 2.1.9l1.7-3c-.9-.9-2.6-1.3-5.1-1.3-2.9-1.3-5.9.4-8.1 3zM149.8 130.1c-3.4 0-6.4 1.7-8.1 4.3-1.7 2.1-2.6 5.6-2.6 8.1 0 4.7 3 7.3 7.7 7.3 3 0 5.1-.9 6.9-1.3l-.4-3.4c-1.3.4-3 1.3-5.1 1.3-3 0-3.9-1.7-3.9-4.3l11.6-1.7c.4-1.3.4-2.6.4-3.4-.1-4.8-2.2-6.9-6.5-6.9zm1.3 8.1l-6.9.9c.4-1.3.4-2.1.9-3 .9-1.7 2.1-3 3.9-3 1.7 0 2.6.9 2.6 3-.1.4-.1 1.3-.5 2.1zM180.6 130.1c-3 0-5.6.9-6.9 2.1-.9-1.3-3-1.7-5.6-1.7-3 0-6 .4-8.1 1.3l-3.4 18h5.6l3-15.9c.9-.4 1.3-.4 2.1-.4 1.7 0 2.6.9 2.6 1.7v.9l-2.6 13.7h5.6l3-15c.9-.4 1.7-.9 2.6-.9 1.7 0 2.1.9 2.1 1.7v.9l-2.6 13.7h5.6l2.6-13.3v-1.3c0-3.8-1.7-5.5-5.6-5.5zM186.6 149.8h5.2l3.8-19.3h-5.5zM206.8 130.1c-3.4 0-6.4 1.7-8.1 4.3-1.7 2.1-2.6 5.6-2.6 8.1 0 4.7 3 7.3 7.7 7.3 3 0 5.1-.9 6.9-1.3l-.9-3.4c-1.3.4-3 1.3-5.1 1.3-3 0-3.9-1.7-3.9-4.3l11.6-1.7c.4-1.3.4-2.6.4-3.4.4-4.4-2.2-6.9-6-6.9zm1.3 8.1l-6.9.9c.4-1.3.4-2.1.9-3 .9-1.7 2.1-3 3.9-3s2.6.9 2.6 3c-.1.8-.5 1.3-.5 2.1zM80.8 129.2c-3.4 0-6 .9-6.4 1.3-1.7.9-1.3 2.6-.9 4.3 1.3-.4 3.4-1.3 5.1-1.3 2.1 0 3 .4 2.6 2.1s-2.1 10.3-2.1 10.3c-.4.4-4.7 1.3-4.7-1.7s2.1-3.9 3.4-4.7c.9-.4.9-2.6 1.3-3-4.7.9-9.4 2.1-10.3 6.9s2.1 6.4 7.3 6.4 8.1-1.7 8.1-1.7 1.7-9.4 2.1-12c.4-2.1.4-4.3-.9-5.6-.3-.4-2-1.3-4.6-1.3z"/>
  <path class="st1" d="M112.9 129.2c-3.4 0-6 .9-6.4 1.3-1.7.9-1.3 2.6-.9 4.3 1.3-.4 3.4-1.3 5.1-1.3 1.7 0 3 .4 2.6 2.1s-2.1 10.3-2.1 10.3c-.4.4-4.7 1.3-4.7-1.7s2.1-3.9 3.4-4.7c.9-.4.9-2.6 1.3-3-4.7.9-9.4 2.1-10.3 6.9-.9 4.7 2.1 6.4 7.3 6.4s8.1-1.7 8.1-1.7 1.7-9.4 2.1-12c.4-2.1.4-4.3-.9-5.6-.3-.4-2-1.3-4.6-1.3zM139.1 125.8h-4.7l-.9 4.7h-.4c-.9 0-1.7-.4-2.6-.4-3 0-6 1.3-8.1 3.9-1.7 2.1-2.6 5.6-2.6 8.6 0 4.7 3.4 7.3 8.1 7.3 3.4 0 5.6-.9 7.3-1.3l4.3-21.4c.4-.6.4-1.4-.4-1.4zm-8.6 20.1c-.4.4-1.3.4-1.7.4-2.1 0-3-1.3-3-3.4s.9-5.1 1.7-6.9c.9-1.7 2.1-3 4.3-3H133.5l-3 12.9zM194.4 123.6c-1.7 0-3.4 1.3-3.4 3 0 1.3.9 2.1 2.6 2.1 1.7 0 3.4-1.3 3.4-3-.5-.8-1.4-2.1-2.6-2.1zM169.5 69.2c-1.7 0-3.4 1.3-3.4 3 0 1.3.9 2.1 2.6 2.1 1.7 0 3.4-1.3 3.4-3 0-1.2-1.3-2.1-2.6-2.1zM138.2 74.8c-8.1 0-11.1 7.7-11.1 12.9 0 4.7 2.6 7.7 7.3 7.7 8.1 0 11.1-8.1 11.1-12.9s-2.1-7.7-7.3-7.7zm.4 13.7c-.9 2.1-2.1 3-3.4 3-1.7 0-2.1-1.3-2.1-3.4 0-1.7.9-5.1 1.3-6.9.9-1.7 1.7-3 3.4-3s2.1 1.3 2.1 3.4c0 2.2-.4 5.2-1.3 6.9zM149.8 78.6c-1.7 2.1-2.6 6-2.6 9 0 4.7 3 7.7 6.9 7.7 2.1 0 4.3-.9 5.1-1.3l-.4-3.4c-.4.4-1.7.9-2.6.9-1.7 0-2.6-1.3-2.6-3.9 0-1.7.9-4.7 1.7-6 .9-1.7 2.6-2.6 3.9-2.6.9 0 1.7.4 2.1.9l1.7-3c-.9-.9-2.6-1.3-5.1-1.3-3-.8-6 .5-8.1 3zM161.4 94.5h5.5l3.9-18.9h-5.6zM198.6 69.6l-5.6 1.7-.9 4.3H190l-.9 3.9h2.1l-2.1 10.3c0 .4-.4 1.3-.4 1.7 0 3 1.7 4.7 5.1 4.7 1.3 0 2.1-.4 3-.4l.9-3.4c-.4 0-.9.4-1.3.4-.9 0-2.1-.4-2.1-1.3v-.9l2.1-10.3h2.6l.9-3.9h-2.6l1.3-6.8zM210.2 75.2c-3.4 0-6.4 1.7-8.1 4.3-1.7 2.1-2.6 5.6-2.6 8.1 0 4.7 3 7.3 7.7 7.3 3 0 5.1-.9 6.9-1.3l-.4-3.4c-1.3.4-3 1.3-5.1 1.3-3 0-3.9-1.7-3.9-4.3l11.6-1.7c.4-1.3.4-2.6.4-3.4-.1-4.7-2.2-6.9-6.5-6.9zm1.7 8.2l-6.9.9c.4-1.3.4-2.1.9-3 .9-1.7 2.1-3 3.9-3s2.6.9 2.6 3c-.5.3-.5 1.2-.5 2.1zM100.5 81.6c0 4.7 5.1 4.3 5.1 6.4 0 1.3-.9 3-4.7 2.1-1.3-.4-1.7.4-2.1.9s-1.3 2.1-1.3 2.1 1.7 1.7 5.1 1.7c6 0 8.6-3.9 8.6-7.3 0-4.3-5.6-4.3-5.6-6.9 0-1.3 1.3-2.6 3.4-2.1.9 0 2.1.9 3.4-.9l.9-1.7s-1.7-1.7-5.6-1.7c-4.6.6-7.2 4-7.2 7.4zM114.6 81.6c0 4.7 5.1 4.3 5.1 6.4 0 1.3-.9 3-4.7 2.1-1.3-.4-1.7.4-2.1.9s-1.3 2.1-1.3 2.1 1.7 1.7 5.1 1.7c6 0 8.6-3.9 8.6-7.3 0-4.3-5.6-4.3-5.6-6.9 0-1.3 1.3-2.6 3.4-2.1.9 0 2.1.9 3.4-.9l.9-1.7s-1.7-1.7-5.6-1.7c-4.2.6-7.2 4-7.2 7.4zM91.5 74.8c-3.4 0-6 .9-6.4 1.3-1.7.9-1.3 2.6-.9 4.3 1.3-.4 3-1.3 5.1-1.3 2.1 0 3 .4 2.6 2.1 0 1.3-1.7 9.9-2.1 9.9-.4.4-4.7 1.3-4.7-1.7s2.1-3.9 3.4-4.7c.9-.4.9-2.6 1.3-3-4.7.9-9.4 2.1-10.3 6.9-.9 4.7 2.1 6.4 7.3 6.4s7.7-1.7 7.7-1.7 1.7-9.4 2.1-11.6c.4-2.1.4-4.3-.9-5.6.1-.9-2.1-1.3-4.2-1.3zM181.9 75.2c-3.4 0-6 .9-6.4 1.3-1.7.9-1.3 2.6-.9 4.3 1.3-.4 3-1.3 5.1-1.3 2.1 0 3 .4 2.6 2.1-.4 1.7-2.1 10.3-2.1 10.3-.4.4-4.7 1.3-4.7-1.7s2.1-3.9 3.4-4.7c.9-.4.9-2.6 1.3-3-4.7.9-9.4 2.1-10.3 6.9s2.1 6.4 7.3 6.4c5.1 0 7.7-1.7 7.7-1.7s1.7-9.4 2.1-11.6c.4-2.1.4-4.3-.9-5.6-.3-1.3-2-1.7-4.2-1.7z"/>
</svg>